# Blender v2.80 (sub 74) OBJ File: ''
# www.blender.org
mtllib Caudlron turner.mtl
o Cube
v 0.176391 6.253222 -0.176391
v 0.176391 -0.176391 -0.176391
v 0.176391 6.253222 0.176391
v 0.176391 -0.176391 0.176391
v -0.176391 6.253222 -0.176391
v -0.176391 -0.176391 -0.176391
v -0.176391 6.253222 0.176391
v -0.176391 -0.176391 0.176391
v 0.210667 4.837142 -0.210667
v -0.210667 4.837142 0.210667
v 0.210667 4.837142 0.210667
v -0.210667 4.837142 -0.210667
v 0.088934 0.172877 -0.088934
v 0.088934 0.172877 0.088934
v -0.088934 0.172877 -0.088934
v -0.088934 0.172877 0.088934
vt 0.375000 0.000000
vt 0.625000 0.000000
vt 0.625000 0.250000
vt 0.375000 0.250000
vt 0.569939 0.250000
vt 0.625000 0.250000
vt 0.625000 0.500000
vt 0.569939 0.500000
vt 0.625000 0.750000
vt 0.569939 0.750000
vt 0.375000 0.750000
vt 0.625000 0.750000
vt 0.625000 1.000000
vt 0.375000 1.000000
vt 0.319939 0.500000
vt 0.375000 0.500000
vt 0.375000 0.750000
vt 0.319939 0.750000
vt 0.819939 0.500000
vt 0.875000 0.500000
vt 0.875000 0.750000
vt 0.819939 0.750000
vt 0.638580 0.500000
vt 0.638580 0.750000
vt 0.138580 0.500000
vt 0.138580 0.750000
vt 0.388580 0.500000
vt 0.388580 0.750000
vt 0.388580 0.250000
vt 0.375000 0.250000
vt 0.375000 0.500000
vt 0.125000 0.500000
vt 0.125000 0.750000
vt 0.625000 0.500000
vn 0.0000 1.0000 0.0000
vn 0.0000 0.0242 0.9997
vn -0.9997 0.0242 0.0000
vn 0.0000 -1.0000 0.0000
vn 0.9997 0.0242 0.0000
vn 0.0000 0.0242 -0.9997
vn 0.0000 -0.0261 -0.9997
vn 0.9997 -0.0261 0.0000
vn -0.9997 -0.0261 0.0000
vn 0.0000 -0.0261 0.9997
vn 0.0000 0.2429 0.9701
vn -0.9701 0.2429 0.0000
vn 0.9701 0.2429 0.0000
vn 0.0000 0.2429 -0.9701
usemtl Material
s off
f 1/1/1 5/2/1 7/3/1 3/4/1
f 11/5/2 3/6/2 7/7/2 10/8/2
f 10/8/3 7/7/3 5/9/3 12/10/3
f 6/11/4 2/12/4 4/13/4 8/14/4
f 9/15/5 1/16/5 3/17/5 11/18/5
f 12/19/6 5/20/6 1/21/6 9/22/6
f 15/23/7 12/19/7 9/22/7 13/24/7
f 13/25/8 9/15/8 11/18/8 14/26/8
f 16/27/9 10/8/9 12/10/9 15/28/9
f 14/29/10 11/5/10 10/8/10 16/27/10
f 4/30/11 14/29/11 16/27/11 8/31/11
f 8/31/12 16/27/12 15/28/12 6/11/12
f 2/32/13 13/25/13 14/26/13 4/33/13
f 6/34/14 15/23/14 13/24/14 2/12/14
